<svg xmlns="http://www.w3.org/2000/svg" width="18" height="20" viewBox="0 0 18 20">
  <g fill="#1CC170">
    <path d="M7.13828571,8.39 C6.54597003,8.43994291 6.09130334,8.92197588 6.09130334,9.5 C6.09130334,10.0780241 6.54597003,10.5600571 7.13828571,10.61 C7.42890185,10.5983142 7.70280615,10.474738 7.89961248,10.2665157 C8.09641882,10.0582933 8.19996708,9.78252215 8.18742857,9.5 C8.20159878,9.21706772 8.09860754,8.94040658 7.90146543,8.73182894 C7.70432331,8.52325129 7.42945983,8.40013967 7.13828571,8.39 Z M10.8925714,8.39 C10.421892,8.35118546 9.97493796,8.5971248 9.76687315,9.00942276 C9.55880834,9.42172073 9.63226575,9.91589641 9.95188296,10.2540535 C10.2715002,10.5922106 10.7717868,10.7050599 11.2119048,10.5382757 C11.6520227,10.3714914 11.9417907,9.95924821 11.9417143,9.5 C11.9542528,9.21747785 11.8507045,8.94170673 11.6538982,8.73348434 C11.4570919,8.52526195 11.1831876,8.40168579 10.8925714,8.39 Z"/>
    <path d="M15.8914286,0 L2.10857143,0 C1.54797903,0.00132447041 1.0108884,0.219104031 0.615454195,0.605429321 C0.220019986,0.991754611 -0.00136563109,1.51497962 -8.47032947e-22,2.06 L-8.47032947e-22,15.5833333 C-0.00136563109,16.1283537 0.220019986,16.6515787 0.615454195,17.037904 C1.0108884,17.4242293 1.54797903,17.6420089 2.10857143,17.6433333 L13.7725714,17.6433333 L13.2274286,15.7933333 L14.544,16.9833333 L15.7885714,18.1 L18.0000063,20 L18,2.06 C18.0013656,1.51497962 17.77998,0.991754611 17.3845458,0.605429321 C16.9891116,0.219104031 16.452021,0.00132447041 15.8914286,0 Z M11.9211429,13.06 C11.9211429,13.06 11.5508571,12.63 11.2422857,12.25 C11.9878313,12.0793044 12.6472747,11.6577909 13.104,11.06 C12.7338975,11.2994654 12.3370813,11.4973943 11.9211429,11.65 C11.4426417,11.8485608 10.9421973,11.992846 10.4297143,12.08 C9.54879465,12.237687 8.64535523,12.2342957 7.76571429,12.07 C7.25045368,11.9715657 6.74550397,11.8276359 6.25714286,11.64 C5.84470065,11.4868458 5.45135433,11.2889266 5.08457143,11.05 C5.52474426,11.6353049 6.16143336,12.05269 6.88457143,12.23 C6.576,12.61 6.19885714,13.0633333 6.19885714,13.0633333 C4.95813476,13.0957598 3.78212061,12.5259606 3.06171429,11.5433333 C3.09459359,9.51491785 3.60105407,7.52027378 4.54285714,5.71 C5.37121845,5.07748633 6.38112806,4.71060042 7.43314286,4.66 L7.536,4.78 C6.54386725,5.01733864 5.61784243,5.46464414 4.824,6.09 C4.824,6.09 5.05028571,5.97 5.43085714,5.8 C6.17001,5.47074074 6.95799572,5.25699849 7.76571429,5.16666667 C7.82216768,5.15526967 7.87951874,5.14857871 7.93714286,5.14666667 C8.62640747,5.05935332 9.32394945,5.05263881 10.0148571,5.12666667 C11.1027922,5.24791976 12.1557607,5.57519288 13.1142857,6.09 C12.3626711,5.49516998 11.4897045,5.06228995 10.5531429,4.82 L10.6971429,4.66 C11.7491577,4.71060042 12.7590673,5.07748633 13.5874286,5.71 C14.5292316,7.52027378 15.0356921,9.51491785 15.0685714,11.5433333 C14.3418187,12.5236506 13.1636605,13.0913754 11.9211429,13.06 Z"/>
  </g>
</svg>
