<svg xmlns="http://www.w3.org/2000/svg" width="20" height="20" viewBox="0 0 20 20">
  <path fill="#05A155" d="M18.75,0 L1.25,0 C0.559644063,-4.22721094e-17 8.45442189e-17,0.559644063 0,1.25 L0,18.75 C8.45442189e-17,19.4403559 0.559644063,20 1.25,20 L18.75,20 C19.4403559,20 20,19.4403559 20,18.75 L20,1.25 C20,0.559644063 19.4403559,4.22721094e-17 18.75,0 Z M16.615,4.73875 L15.5425,5.7675 C15.4478129,5.8366684 15.3995988,5.95286447 15.4175,6.06875 L15.4175,13.625 C15.3995988,13.7408855 15.4478129,13.8570816 15.5425,13.92625 L16.59,14.955 L16.59,15.18125 L11.32125,15.18125 L11.32125,14.955 L12.40625,13.90125 C12.5125,13.795 12.5125,13.76375 12.5125,13.6 L12.5125,7.49125 L9.5,15.155 L9.08875,15.155 L5.57625,7.4925 L5.57625,12.625 C5.5469776,12.8411971 5.61890658,13.0588284 5.77125,13.215 L7.1825,14.9275 L7.1825,15.15375 L3.1825,15.15375 L3.1825,14.9275 L4.59375,13.215 C4.74499463,13.0585741 4.81275846,12.839502 4.77625,12.625 L4.77625,6.68875 C4.79215795,6.52333858 4.72805188,6.36028619 4.60375,6.25 L3.35375,4.73875 L3.35375,4.5125 L7.25,4.5125 L10.25,11.11625 L12.9025,4.5125 L16.61625,4.5125 L16.615,4.73875 Z"/>
</svg>
