<svg xmlns="http://www.w3.org/2000/svg" width="20" height="17" viewBox="0 0 20 17">
  <path fill="#1CC170" d="M20,2.5 C19.25,2.875 18.5,3 17.625,3.125 C18.5,2.625 19.125,1.875 19.375,0.875 C18.625,1.375 17.75,1.625 16.75,1.875 C16,1.125 14.875,0.625 13.75,0.625 C11.625,0.625 9.75,2.5 9.75,4.75 C9.75,5.125 9.75,5.375 9.875,5.625 C6.5,5.5 3.375,3.875 1.375,1.375 C1,2 0.875,2.625 0.875,3.5 C0.875,4.875 1.625,6.125 2.75,6.875 C2.125,6.875 1.5,6.625 0.875,6.375 C0.875,6.375 0.875,6.375 0.875,6.375 C0.875,8.375 2.25,10 4.125,10.375 C3.75,10.5 3.375,10.5 3,10.5 C2.75,10.5 2.5,10.5 2.25,10.375 C2.75,12 4.25,13.25 6.125,13.25 C4.75,14.375 3,15 1,15 C0.625,15 0.375,15 0,15 C1.875,16.125 4,16.875 6.25,16.875 C13.75,16.875 17.875,10.625 17.875,5.25 C17.875,5.125 17.875,4.875 17.875,4.75 C18.75,4.125 19.5,3.375 20,2.5 Z"/>
</svg>
